<mxfile host="app.diagrams.net" modified="2024-05-17T02:14:11.201Z" agent="Mozilla/5.0 (Windows NT 10.0; Win64; x64) AppleWebKit/537.36 (KHTML, like Gecko) Chrome/124.0.0.0 Safari/537.36" version="24.2.7" etag="y85LJU160p30hjZs7YAS" type="github">
  <diagram name="Page-1" id="FDQEtaBF2cFOqXNnFLyv">
    <mxGraphModel>
      <root>
        <mxCell id="0" />
        <mxCell id="1" parent="0" />
      </root>
    </mxGraphModel>
  </diagram>
</mxfile>
